<svg width="257" height="120" viewBox="0 0 257 120" fill="none" xmlns="http://www.w3.org/2000/svg">
<g clip-path="url(#clip0_252_6134)">
<path d="M219.811 90.9868C215.087 100.057 208.659 106.067 201.441 109.891C199.355 110.994 197.186 111.934 194.954 112.703C181.818 117.247 167.116 116.042 155.568 113.642C147.468 111.958 139.246 110.921 130.981 110.543C128.623 110.437 126.263 110.385 123.901 110.385C120.259 110.39 116.617 110.525 112.976 110.79C89.3149 112.524 53.0207 109.276 37.0527 77.0488L77.0058 -0.09375L91.8755 37.9642L96.621 50.1125L109.7 32.2209L116.453 22.9831L147.208 58.1329L155.901 38.9956L216.083 87.9562L219.44 90.6854L219.811 90.9868Z" fill="#F2F2F2"/>
<path opacity="0.1" d="M71.3359 24.6312L77.4775 11.209L85.9812 30.7537L78.6585 16.625L71.3359 24.6312Z" fill="black"/>
<path opacity="0.1" d="M130.981 110.543C128.623 110.437 126.263 110.384 123.901 110.385L96.6211 50.1123L130.981 110.543Z" fill="black"/>
<path opacity="0.1" d="M109.699 32.2208L116.452 26.9863L147.16 62.308L115.98 32.1668L109.699 32.2208Z" fill="black"/>
<path opacity="0.1" d="M201.441 109.891C199.355 110.994 197.187 111.934 194.955 112.702L147.209 58.1328L201.441 109.891Z" fill="black"/>
<path d="M200.31 57.895H199.658V57.2451H199.308V57.895H198.656V58.2438H199.308V58.8935H199.658V58.2438H200.31V57.895Z" fill="#F2F2F2"/>
<path d="M257 102.575C257 106.476 199.469 120 128.5 120C57.5314 120 0 106.476 0 102.575C0 98.6731 57.5314 105.871 128.5 105.871C199.469 105.871 257 98.6731 257 102.575Z" fill="#3F3D56"/>
<path opacity="0.1" d="M257 102.575C257 106.476 199.469 120 128.5 120C57.5314 120 0 106.476 0 102.575C0 98.6731 57.5314 105.871 128.5 105.871C199.469 105.871 257 98.6731 257 102.575Z" fill="#FF6B00"/>
<path d="M128.5 109.639C199.469 109.639 257 106.476 257 102.575C257 98.6731 199.469 95.5103 128.5 95.5103C57.5314 95.5103 0 98.6731 0 102.575C0 106.476 57.5314 109.639 128.5 109.639Z" fill="#65C5A2"/>
<path d="M134.168 92.6845C134.168 100.488 130.678 98.336 126.373 98.336C122.068 98.336 118.578 100.488 118.578 92.6845C118.578 84.8814 126.373 70.0786 126.373 70.0786C126.373 70.0786 134.168 84.8814 134.168 92.6845Z" fill="#FF7144"/>
<path opacity="0.1" d="M129.916 95.6699C129.916 99.2168 128.33 98.2388 126.373 98.2388C124.416 98.2388 122.83 99.2168 122.83 95.6699C122.83 92.1231 126.373 85.3945 126.373 85.3945C126.373 85.3945 129.916 92.1231 129.916 95.6699Z" fill="black"/>
<path d="M135.114 100.455H117.634C116.46 100.455 115.508 101.404 115.508 102.574C115.508 103.745 116.46 104.694 117.634 104.694H135.114C136.288 104.694 137.239 103.745 137.239 102.574C137.239 101.404 136.288 100.455 135.114 100.455Z" fill="#2F2E41"/>
<path d="M135.114 96.2168H117.634C116.46 96.2168 115.508 97.1656 115.508 98.3361C115.508 99.5066 116.46 100.455 117.634 100.455H135.114C136.288 100.455 137.239 99.5066 137.239 98.3361C137.239 97.1656 136.288 96.2168 135.114 96.2168Z" fill="#2F2E41"/>
<path d="M32.3613 73.5088C32.3613 86.5409 40.5625 97.0863 50.6976 97.0863L32.3613 73.5088Z" fill="#3F3D56"/>
<path d="M50.6973 97.0861C50.6973 83.9076 59.8493 73.2437 71.1595 73.2437L50.6973 97.0861Z" fill="#65C5A2"/>
<path d="M39.0039 74.6899C39.0039 87.0691 44.2337 97.0861 50.6966 97.0861L39.0039 74.6899Z" fill="#65C5A2"/>
<path d="M50.6973 97.0864C50.6973 80.2472 61.2756 66.6211 74.3484 66.6211L50.6973 97.0864Z" fill="#3F3D56"/>
<path d="M46.8398 97.2523C46.8398 97.2523 49.4402 97.1725 50.2239 96.6162C51.0076 96.0598 54.224 95.3956 54.4184 96.2878C54.6128 97.18 58.3263 100.725 55.3905 100.749C52.4546 100.772 48.5689 100.293 47.7867 99.818C47.0046 99.343 46.8398 97.2523 46.8398 97.2523Z" fill="#A8A8A8"/>
<path opacity="0.2" d="M55.4429 100.438C52.507 100.462 48.6213 99.9825 47.8391 99.5075C47.2434 99.1458 47.0061 97.8478 46.9267 97.249C46.8717 97.2514 46.8398 97.2524 46.8398 97.2524C46.8398 97.2524 47.0045 99.3431 47.7867 99.8181C48.5689 100.293 52.4546 100.773 55.3905 100.749C56.2379 100.742 56.5306 100.442 56.5146 99.9964C56.3968 100.265 56.0736 100.433 55.4429 100.438Z" fill="black"/>
<path d="M170.41 82.1113C170.41 91.0663 176.046 98.3126 183.01 98.3126L170.41 82.1113Z" fill="#3F3D56"/>
<path d="M183.012 98.313C183.012 89.2574 189.301 81.9297 197.072 81.9297L183.012 98.313Z" fill="#65C5A2"/>
<path d="M174.977 82.9233C174.977 91.4296 178.57 98.3128 183.011 98.3128L174.977 82.9233Z" fill="#65C5A2"/>
<path d="M183.012 98.3126C183.012 86.7416 190.281 77.3784 199.264 77.3784L183.012 98.3126Z" fill="#3F3D56"/>
<path d="M180.359 98.4269C180.359 98.4269 182.146 98.372 182.685 97.9897C183.223 97.6075 185.433 97.151 185.567 97.7641C185.701 98.3772 188.252 100.813 186.235 100.83C184.218 100.846 181.548 100.516 181.01 100.19C180.473 99.8635 180.359 98.4269 180.359 98.4269Z" fill="#A8A8A8"/>
<path opacity="0.2" d="M186.271 100.616C184.254 100.633 181.584 100.303 181.046 99.9767C180.637 99.7282 180.474 98.8363 180.419 98.4248C180.381 98.4264 180.359 98.4271 180.359 98.4271C180.359 98.4271 180.473 99.8637 181.01 100.19C181.548 100.517 184.218 100.846 186.235 100.83C186.817 100.825 187.018 100.619 187.007 100.313C186.926 100.497 186.704 100.613 186.271 100.616Z" fill="black"/>
<path d="M211.131 103.69C211.131 103.69 213.814 103.283 214.556 102.609C215.298 101.935 218.546 100.846 218.859 101.745C219.172 102.645 223.464 105.854 220.426 106.245C217.388 106.635 213.303 106.624 212.434 106.229C211.564 105.835 211.131 103.69 211.131 103.69Z" fill="#A8A8A8"/>
<path opacity="0.2" d="M220.441 105.917C217.403 106.307 213.319 106.295 212.449 105.901C211.787 105.601 211.378 104.286 211.22 103.676C211.164 103.685 211.131 103.69 211.131 103.69C211.131 103.69 211.564 105.835 212.434 106.229C213.303 106.624 217.388 106.635 220.426 106.245C221.303 106.132 221.568 105.784 221.496 105.325C221.408 105.618 221.094 105.833 220.441 105.917Z" fill="black"/>
<path d="M145.096 103.496C145.096 103.496 147.36 103.153 147.986 102.584C148.612 102.015 151.354 101.096 151.618 101.855C151.882 102.615 155.504 105.323 152.94 105.652C150.377 105.982 146.929 105.972 146.195 105.639C145.461 105.307 145.096 103.496 145.096 103.496Z" fill="#A8A8A8"/>
<path opacity="0.2" d="M152.953 105.375C150.39 105.705 146.942 105.695 146.208 105.362C145.649 105.109 145.304 103.999 145.171 103.484C145.123 103.492 145.096 103.496 145.096 103.496C145.096 103.496 145.461 105.307 146.195 105.639C146.929 105.972 150.377 105.982 152.94 105.652C153.68 105.557 153.904 105.264 153.843 104.876C153.769 105.124 153.504 105.305 152.953 105.375Z" fill="black"/>
<path d="M28.9102 102.369C28.9102 102.369 30.6731 102.101 31.1605 101.659C31.6479 101.216 33.7818 100.5 33.9877 101.091C34.1936 101.683 37.0131 103.791 35.0172 104.047C33.0213 104.304 30.3376 104.296 29.7661 104.037C29.1947 103.778 28.9102 102.369 28.9102 102.369Z" fill="#A8A8A8"/>
<path opacity="0.2" d="M35.0272 103.832C33.0314 104.089 30.3476 104.081 29.7762 103.822C29.341 103.625 29.0724 102.761 28.969 102.36C28.9317 102.366 28.9102 102.369 28.9102 102.369C28.9102 102.369 29.1947 103.778 29.7661 104.038C30.3376 104.297 33.0213 104.304 35.0172 104.048C35.5933 103.974 35.7677 103.745 35.7201 103.443C35.6621 103.636 35.4561 103.777 35.0272 103.832Z" fill="black"/>
<path opacity="0.1" d="M90.634 99.5975C90.634 106.714 80.6839 104.513 68.5009 104.513C56.318 104.513 46.5156 106.714 46.5156 99.5975C46.5156 92.4813 56.4644 90.9336 68.6474 90.9336C80.8304 90.9336 90.634 92.4813 90.634 99.5975Z" fill="black"/>
<path d="M90.634 97.8451C90.634 104.961 80.6839 102.76 68.5009 102.76C56.318 102.76 46.5156 104.961 46.5156 97.8451C46.5156 90.7289 56.4644 89.1812 68.6474 89.1812C80.8304 89.1812 90.634 90.7289 90.634 97.8451Z" fill="#3F3D56"/>
<path d="M92.5315 65.2415C91.9445 65.5406 91.3865 65.8931 90.8646 66.2945C90.3406 66.6991 89.9394 67.2407 89.7056 67.859C89.412 67.1736 89.172 66.4666 88.9879 65.7443C88.5741 64.4479 88.0845 63.1769 87.5215 61.9377C88.4456 61.5868 89.2467 60.9744 89.8264 60.1758C90.96 61.301 92.1256 62.4745 92.6897 63.9668C92.7868 64.2239 93.0696 64.498 93.1352 64.7282C93.2281 65.0539 92.7792 65.1056 92.5315 65.2415Z" fill="#FFBFC5"/>
<path d="M103.2 92.6714C104.438 93.0614 105.593 93.6774 106.606 94.4881C106.682 94.5357 106.737 94.6103 106.761 94.697C106.786 94.8926 106.524 94.9723 106.334 95.0269C105.775 95.1874 105.418 95.7109 105.006 96.1207C104.595 96.5304 103.933 96.8519 103.453 96.5247C103.327 96.4284 103.217 96.3128 103.127 96.1821L101.098 93.542C101.786 93.1586 102.509 92.8421 103.258 92.5967" fill="#F1F1F1"/>
<path d="M106.847 93.2212C107.116 93.4944 107.232 93.8874 107.496 94.1655C107.673 94.3341 107.876 94.4742 108.096 94.5808L109.649 95.4326C109.887 95.5732 110.138 95.6915 110.399 95.7859C110.691 95.8672 110.989 95.9292 111.29 95.9713C111.72 96.0517 112.141 96.1755 112.546 96.3408C112.85 96.465 113.19 96.6794 113.188 97.0073C113.176 97.1675 113.11 97.319 113.002 97.438C112.39 98.2066 111.307 98.377 110.328 98.4802C108.208 98.7035 106.04 98.871 103.968 98.373C103.564 98.2988 103.182 98.1339 102.85 97.8908C102.225 97.3744 102.101 96.4337 102.334 95.6586C102.4 95.3613 102.577 95.0999 102.828 94.9268C103.156 94.7393 103.565 94.8264 103.942 94.7974C104.343 94.7428 104.732 94.6195 105.091 94.4327C105.327 94.3262 105.6 94.1889 105.651 93.908C105.698 93.6474 105.391 93.3865 105.455 93.1538C105.599 92.6379 106.6 92.9694 106.847 93.2212Z" fill="#575A89"/>
<path opacity="0.1" d="M106.847 93.2212C107.116 93.4944 107.232 93.8874 107.496 94.1655C107.673 94.3341 107.876 94.4742 108.096 94.5808L109.649 95.4326C109.887 95.5732 110.138 95.6915 110.399 95.7859C110.691 95.8672 110.989 95.9292 111.29 95.9713C111.72 96.0517 112.141 96.1755 112.546 96.3408C112.85 96.465 113.19 96.6794 113.188 97.0073C113.176 97.1675 113.11 97.319 113.002 97.438C112.39 98.2066 111.307 98.377 110.328 98.4802C108.208 98.7035 106.04 98.871 103.968 98.373C103.564 98.2988 103.182 98.1339 102.85 97.8908C102.225 97.3744 102.101 96.4337 102.334 95.6586C102.4 95.3613 102.577 95.0999 102.828 94.9268C103.156 94.7393 103.565 94.8264 103.942 94.7974C104.343 94.7428 104.732 94.6195 105.091 94.4327C105.327 94.3262 105.6 94.1889 105.651 93.908C105.698 93.6474 105.391 93.3865 105.455 93.1538C105.599 92.6379 106.6 92.9694 106.847 93.2212Z" fill="black"/>
<path d="M110.449 101.674C110.666 101.817 110.883 101.96 111.101 102.103C111.301 102.209 111.465 102.371 111.575 102.569C111.716 102.9 111.525 103.275 111.312 103.566C110.674 104.436 109.803 105.109 108.799 105.508C108.45 105.652 108.082 105.744 107.707 105.779C107.621 105.792 107.533 105.781 107.453 105.747C107.254 105.643 107.283 105.359 107.281 105.135C107.274 104.485 106.781 103.957 106.338 103.479C105.896 103.002 105.444 102.414 105.546 101.771C105.638 101.393 105.832 101.047 106.108 100.772C106.353 100.465 106.641 100.194 106.962 99.968C107.423 99.6676 107.585 99.8294 108.019 100.105C108.832 100.622 109.642 101.145 110.449 101.674Z" fill="#F1F1F1"/>
<path d="M108.33 104.842C108.507 104.886 108.693 104.889 108.871 104.849C109.05 104.809 109.216 104.727 109.357 104.611C109.637 104.376 109.864 104.084 110.024 103.756C110.183 103.464 110.321 103.161 110.437 102.85C110.574 102.485 110.7 102.082 111.021 101.861C111.411 101.593 111.959 101.698 112.355 101.956C112.728 102.247 113.071 102.574 113.378 102.933C114.2 103.697 115.197 104.25 116.282 104.544C117.363 104.835 118.458 105.068 119.563 105.243C119.784 105.273 119.998 105.341 120.195 105.446C120.639 105.716 120.787 106.319 120.664 106.823C120.507 107.32 120.225 107.77 119.846 108.129C119.547 108.482 119.177 108.767 118.759 108.967C118.406 109.096 118.034 109.166 117.658 109.175C115.838 109.298 114.009 109.156 112.23 108.751C111.577 108.574 110.912 108.442 110.24 108.355C109.831 108.319 109.419 108.331 109.009 108.303C108.194 108.247 107.396 108.038 106.66 107.685C106.48 107.62 106.329 107.495 106.231 107.331C106.178 107.18 106.168 107.018 106.2 106.862L106.472 104.488C106.495 104.281 106.564 104.025 106.77 103.992C106.967 103.962 107.109 104.162 107.233 104.317C107.472 104.603 107.8 104.801 108.164 104.881C108.529 104.96 108.91 104.916 109.247 104.756" fill="#575A89"/>
<path d="M92.5632 74.9114C93.7579 74.7772 95.1435 74.7547 95.9514 75.6424C96.4468 76.1867 96.5972 76.9492 96.7686 77.6641C97.0367 78.8645 97.4724 80.0215 98.0631 81.1011C98.4431 81.77 98.9038 82.3977 99.1953 83.1093C99.4941 83.8385 99.6041 84.628 99.7788 85.3962C100.479 88.4322 102.189 91.143 104.63 93.0881C104.199 94.2567 102.952 94.9242 101.74 95.2227C101.483 95.3315 101.197 95.3508 100.927 95.2776C100.658 95.2045 100.421 95.043 100.255 94.8193C99.6874 94.209 99.159 93.5637 98.6727 92.8873C96.9249 90.5607 95.1505 88.185 94.1985 85.4376C93.8645 84.4736 93.5304 83.3482 92.5905 82.9453C92.0544 82.7156 91.4414 82.7873 90.8661 82.8845C89.5805 83.1019 88.3153 83.4257 87.0836 83.8527C85.7705 84.308 84.2669 84.8684 83.0651 84.1717C82.3459 83.7547 81.9178 82.954 81.7599 82.1397C81.641 81.3177 81.6399 80.4829 81.7566 79.6606C81.7646 79.2884 81.8541 78.9226 82.019 78.5886C82.1853 78.3389 82.3986 78.1237 82.6472 77.9549C83.7204 77.1422 84.9141 76.5011 86.1854 76.0547C87.3997 75.628 88.7049 75.4833 89.9718 75.2724C90.8322 75.1292 91.696 75.0089 92.5632 74.9114Z" fill="#575A89"/>
<path opacity="0.1" d="M92.5632 74.9114C93.7579 74.7772 95.1435 74.7547 95.9514 75.6424C96.4468 76.1867 96.5972 76.9492 96.7686 77.6641C97.0367 78.8645 97.4724 80.0215 98.0631 81.1011C98.4431 81.77 98.9038 82.3977 99.1953 83.1093C99.4941 83.8385 99.6041 84.628 99.7788 85.3962C100.479 88.4322 102.189 91.143 104.63 93.0881C104.199 94.2567 102.952 94.9242 101.74 95.2227C101.483 95.3315 101.197 95.3508 100.927 95.2776C100.658 95.2045 100.421 95.043 100.255 94.8193C99.6874 94.209 99.159 93.5637 98.6727 92.8873C96.9249 90.5607 95.1505 88.185 94.1985 85.4376C93.8645 84.4736 93.5304 83.3482 92.5905 82.9453C92.0544 82.7156 91.4414 82.7873 90.8661 82.8845C89.5805 83.1019 88.3153 83.4257 87.0836 83.8527C85.7705 84.308 84.2669 84.8684 83.0651 84.1717C82.3459 83.7547 81.9178 82.954 81.7599 82.1397C81.641 81.3177 81.6399 80.4829 81.7566 79.6606C81.7646 79.2884 81.8541 78.9226 82.019 78.5886C82.1853 78.3389 82.3986 78.1237 82.6472 77.9549C83.7204 77.1422 84.9141 76.5011 86.1854 76.0547C87.3997 75.628 88.7049 75.4833 89.9718 75.2724C90.8322 75.1292 91.696 75.0089 92.5632 74.9114Z" fill="black"/>
<path d="M99.404 83.4998C99.9583 83.7786 100.467 84.139 100.914 84.5689C101.375 85.1103 101.725 85.7364 101.944 86.4119C102.043 86.6373 102.103 86.8773 102.123 87.1223C102.132 87.2449 102.112 87.368 102.067 87.4822C102.021 87.5964 101.95 87.6987 101.858 87.7815C101.637 87.9232 101.375 87.9871 101.113 87.9631C100.766 87.9659 100.42 87.9569 100.074 87.9361C99.8636 87.9345 99.6552 87.8952 99.4588 87.8199C99.279 87.7283 99.1167 87.6059 98.9795 87.4582C98.3706 86.8944 97.8719 86.223 97.5085 85.478C97.2577 84.9267 96.8448 83.6561 97.2396 83.0824C97.6463 82.4913 98.9741 83.2566 99.404 83.4998Z" fill="#FFBFC5"/>
<path d="M82.6522 83.3032C84.4192 83.8675 86.3 83.9319 88.1473 84.104C91.2546 84.3936 94.3241 84.9985 97.3083 85.9092C97.9313 86.0605 98.5183 86.333 99.0354 86.7109C99.4348 87.0789 99.773 87.5078 100.037 87.9815C100.523 88.7189 100.962 89.4852 101.354 90.2762C101.689 90.9911 101.945 91.7404 102.257 92.4658C103.306 94.8941 104.965 97.0121 107.074 98.6157C107.459 98.9078 107.888 99.2259 107.987 99.6983C108.032 100.002 107.982 100.313 107.845 100.588C107.389 101.645 106.443 102.415 105.451 103.004C105.025 103.257 104.555 103.514 104.346 103.962C102.838 103.342 101.717 102.019 100.784 100.685C99.8504 99.3504 99.0227 97.9168 97.8268 96.8104C97.3 96.323 96.7015 95.8986 96.2871 95.3132C95.6548 94.4196 95.4837 93.1971 94.6324 92.5075C93.775 91.8129 92.545 91.9075 91.4455 92.015C85.8136 92.5647 80.1386 92.5035 74.52 91.8324C73.3519 91.6927 72.1518 91.5149 71.14 90.9166C70.1281 90.3183 69.3403 89.1958 69.4837 88.0318C69.618 86.9422 70.5283 86.0783 71.543 85.6518C72.5577 85.2252 73.6793 85.1487 74.7736 85.0259C77.459 84.7647 80.1037 84.1865 82.6522 83.3032Z" fill="#575A89"/>
<path d="M66.4969 85.5656C66.6356 84.6418 66.9955 83.7667 67.2214 82.8601C67.3346 82.2897 67.4779 81.7255 67.6507 81.1701C67.6564 81.1544 67.6628 81.1391 67.6687 81.1235C67.7261 81.1188 67.7818 81.1016 67.8318 81.0731C67.8818 81.0446 67.9249 81.0055 67.9581 80.9585C67.9889 80.8776 67.9973 80.7899 67.9826 80.7046C67.9781 80.6142 67.9808 80.5235 67.9907 80.4335C68.3602 79.8158 68.764 79.219 69.2002 78.6461C69.9653 77.5655 70.6281 76.417 71.2896 75.2704C71.8319 74.3304 72.3751 73.3887 72.824 72.401C73.1607 71.6603 73.4437 70.8951 73.8159 70.1715C75.1406 67.5961 77.5217 65.6994 80.0828 64.3361C82.5394 63.0285 85.1952 62.1471 87.7782 61.1074C87.8446 61.1725 87.9049 61.2434 87.9584 61.3193C89.354 63.2209 89.5044 65.7201 90.0787 68.0056C90.3106 68.9284 90.6206 69.8481 90.62 70.7994C90.6192 72.2036 89.946 73.51 89.2769 74.7457C88.6788 75.9267 87.9727 77.0501 87.1675 78.1016C86.7723 78.5892 86.3371 79.0434 85.9396 79.5293C84.3114 81.5195 83.3713 83.9667 82.4573 86.3678C81.9281 87.758 81.0633 88.9911 80.4816 90.3603C80.258 90.8865 80.129 91.4538 79.8482 91.952C79.5674 92.4502 79.0788 92.8884 78.5056 92.891C78.3379 92.8864 78.1714 92.8604 78.0103 92.8136C75.9354 92.2815 74.1976 90.913 72.4733 89.6454C72.1655 89.4191 71.8559 89.1949 71.533 88.9908C71.207 88.7847 70.8682 88.5997 70.5296 88.4147C70.2731 88.2746 70.0166 88.1344 69.76 87.9943C68.9193 87.535 68.0773 87.0751 67.2014 86.6867C66.938 86.5813 66.685 86.4518 66.4456 86.2999C66.443 86.0542 66.4601 85.8086 66.4969 85.5656Z" fill="#FF9635"/>
<path d="M93.6246 65.0837C96.265 65.0837 98.4055 62.9499 98.4055 60.3177C98.4055 57.6856 96.265 55.5518 93.6246 55.5518C90.9842 55.5518 88.8438 57.6856 88.8438 60.3177C88.8438 62.9499 90.9842 65.0837 93.6246 65.0837Z" fill="#FFBFC5"/>
<path d="M96.8419 58.088C96.9575 58.2894 97.1325 58.4504 97.3432 58.5491C97.5539 58.6479 97.7899 58.6795 98.0193 58.6397C98.2473 58.5941 98.4631 58.5009 98.6525 58.3662C98.8418 58.2316 99.0005 58.0585 99.118 57.8584C99.3505 57.4561 99.4896 57.0069 99.5252 56.5439C99.5623 56.3661 99.5639 56.1828 99.5297 56.0044C99.4955 55.826 99.4262 55.6562 99.3259 55.5046C99.1477 55.3324 98.943 55.1897 98.7196 55.0819C98.4116 54.8901 98.153 54.629 97.9644 54.3196C97.8305 54.0993 97.7346 53.8585 97.6143 53.6306C97.1794 52.8071 96.3334 52.1376 95.4004 52.168C94.9523 52.1826 94.5251 52.3524 94.0835 52.4296C92.6013 52.6887 90.9903 51.907 89.6153 52.5166C89.2769 52.6807 88.9624 52.8898 88.6804 53.1381C88.2933 53.4564 87.9213 53.7917 87.5642 54.144C87.2541 54.4075 87.0194 54.748 86.8839 55.1311C86.6971 55.8303 87.1413 56.6116 86.8586 57.2781C86.7619 57.4689 86.6465 57.6497 86.514 57.8178C86.202 58.2739 86.541 60.0543 86.5064 60.6052C86.4667 60.875 86.5355 61.1494 86.6978 61.3688C86.9233 61.6194 87.3026 61.6413 87.6403 61.6454L88.261 61.6528C88.3537 61.6592 88.4469 61.6496 88.5363 61.6245C88.6582 61.5705 88.7652 61.4882 88.8487 61.3845C89.3649 60.8423 89.4767 59.0691 90.2266 59.0755C90.3405 59.0692 90.4535 59.0984 90.55 59.1591C90.6859 59.2583 90.7259 59.4407 90.8221 59.5786C90.9322 59.7082 91.0812 59.799 91.2471 59.8376C91.4129 59.8762 91.5868 59.8605 91.7431 59.793C92.0528 59.6503 92.3223 59.4333 92.5273 59.1614C92.7315 58.89 92.9792 58.6541 93.2604 58.4632C93.66 58.2309 94.1116 58.1297 94.5004 57.8672C94.8254 57.6477 95.0104 57.3293 95.3021 57.087C95.4186 56.9867 95.5652 56.9277 95.7189 56.9191C95.8727 56.9105 96.0249 56.9529 96.152 57.0395C96.612 57.2789 96.6322 57.6711 96.8419 58.088Z" fill="#2F2E41"/>
<path opacity="0.1" d="M85.7951 66.4851C86.9117 66.327 88.0495 66.4181 89.1265 66.7518C89.4859 66.8336 89.8106 67.0257 90.0549 67.301C90.1938 67.5095 90.2842 67.7463 90.3195 67.9941C90.5391 69.1339 90.3982 70.3135 89.9164 71.37C89.8819 71.4228 89.8591 71.4822 89.8495 71.5445C89.8399 71.6067 89.8437 71.6703 89.8606 71.7309C89.9091 71.8044 89.9725 71.867 90.0466 71.9147C90.1137 71.979 90.1664 72.0568 90.2011 72.1429C90.2359 72.229 90.2519 72.3215 90.2481 72.4142C90.2444 72.5069 90.2209 72.5978 90.1793 72.6808C90.1377 72.7639 90.0789 72.8372 90.0068 72.8959C89.9177 72.9607 89.8007 73.0172 89.7832 73.1258C89.7642 73.2442 89.8758 73.3371 89.9627 73.4201C90.09 73.5443 90.1839 73.6985 90.2358 73.8685C90.2876 74.0384 90.2956 74.2186 90.2592 74.3925C90.2123 74.5324 90.1802 74.6769 90.1632 74.8234C90.1812 75.0027 90.2342 75.1768 90.3192 75.3358C90.4645 75.6946 90.5141 76.0848 90.4633 76.4683C90.417 76.6497 90.4125 76.8391 90.4501 77.0223C90.5025 77.1436 90.5738 77.2559 90.6612 77.355C91.0049 77.8171 91.0803 78.59 90.5818 78.8797C90.7951 78.9888 90.969 79.1616 91.0791 79.3739C91.1892 79.5863 91.2301 79.8276 91.1961 80.0642C91.4937 79.9056 91.8546 80.1083 92.1025 80.3365C92.3504 80.5646 92.6038 80.8437 92.9408 80.8604C93.1758 80.8721 93.4233 80.7506 93.6377 80.8471C93.9638 80.9938 93.9526 81.5208 94.2733 81.6787C94.5545 81.8173 94.9461 81.5912 95.1858 81.793C95.2692 81.8632 95.3117 81.9719 95.3923 82.0454C95.5742 82.2114 95.8582 82.1408 96.1047 82.1311C96.3969 82.1393 96.6819 82.2235 96.9315 82.3754C97.181 82.5273 97.3864 82.7415 97.5272 82.9969C97.8025 83.5112 97.9685 84.0765 98.015 84.6575C98.078 84.9733 98.0718 85.2989 97.9966 85.612C97.9563 85.7678 97.8708 85.9084 97.7509 86.0161C97.6309 86.1238 97.4819 86.194 97.3222 86.2178C94.3882 86.4072 91.493 85.7058 88.6363 85.0124C87.7972 84.8088 86.9437 84.5704 86.2439 84.0658C85.6081 83.6074 85.1406 82.9591 84.6846 82.3225C83.8438 81.1488 82.9977 79.9661 82.396 78.6545C81.6216 76.9664 81.2763 75.1197 80.9377 73.2944C80.8212 72.8051 80.7797 72.3009 80.8148 71.7992C80.9163 71.2123 81.1414 70.6535 81.4752 70.1597C81.8789 69.5049 82.3254 68.8773 82.8119 68.2809C83.5512 67.3373 84.6131 66.698 85.7951 66.4851Z" fill="black"/>
<path d="M85.9885 66.2922C87.105 66.1341 88.2429 66.2252 89.3198 66.559C89.6793 66.6408 90.004 66.8328 90.2482 67.1081C90.3871 67.3166 90.4775 67.5534 90.5129 67.8013C90.7325 68.941 90.5916 70.1206 90.1097 71.1771C90.0753 71.2299 90.0525 71.2894 90.0429 71.3516C90.0332 71.4138 90.037 71.4774 90.0539 71.5381C90.1025 71.6115 90.1658 71.6741 90.24 71.7218C90.3071 71.7861 90.3598 71.8639 90.3945 71.95C90.4292 72.0361 90.4452 72.1286 90.4415 72.2213C90.4377 72.3141 90.4143 72.4049 90.3727 72.488C90.3311 72.571 90.2723 72.6443 90.2002 72.703C90.111 72.7679 89.994 72.8243 89.9766 72.933C89.9576 73.0514 90.0692 73.1442 90.1561 73.2272C90.2834 73.3514 90.3773 73.5056 90.4291 73.6756C90.4809 73.8455 90.489 74.0257 90.4525 74.1996C90.4057 74.3396 90.3735 74.484 90.3566 74.6306C90.3746 74.8099 90.4276 74.9839 90.5126 75.1429C90.6579 75.5017 90.7075 75.8919 90.6566 76.2755C90.6104 76.4568 90.6059 76.6462 90.6435 76.8295C90.6959 76.9507 90.7671 77.063 90.8546 77.1621C91.1982 77.6243 91.2736 78.3971 90.7752 78.6869C90.9885 78.796 91.1623 78.9687 91.2725 79.1811C91.3826 79.3934 91.4235 79.6347 91.3894 79.8713C91.687 79.7128 92.0479 79.9154 92.2959 80.1436C92.5438 80.3718 92.7972 80.6508 93.1342 80.6676C93.3691 80.6793 93.6167 80.5578 93.8311 80.6542C94.1571 80.8009 94.146 81.3279 94.4666 81.4859C94.7479 81.6244 95.1395 81.3983 95.3792 81.6001C95.4626 81.6703 95.5051 81.779 95.5856 81.8525C95.7675 82.0186 96.0516 81.948 96.2981 81.9382C96.5903 81.9464 96.8753 82.0306 97.1248 82.1825C97.3744 82.3344 97.5797 82.5486 97.7206 82.804C97.9959 83.3183 98.1619 83.8836 98.2084 84.4647C98.2714 84.7804 98.2651 85.106 98.19 85.4192C98.1496 85.575 98.0642 85.7155 97.9442 85.8232C97.8243 85.931 97.6752 86.0011 97.5156 86.025C94.5815 86.2143 91.6864 85.513 88.8297 84.8196C87.9906 84.6159 87.1371 84.3775 86.4373 83.873C85.8015 83.4146 85.3339 82.7662 84.8779 82.1297C84.0372 80.956 83.1911 79.7732 82.5894 78.4616C81.8149 76.7736 81.4697 74.9269 81.1311 73.1016C81.0145 72.6122 80.9731 72.1081 81.0082 71.6063C81.1097 71.0194 81.3347 70.4607 81.6685 69.9668C82.0723 69.312 82.5188 68.6844 83.0052 68.0881C83.7446 67.1444 84.8065 66.5052 85.9885 66.2922Z" fill="#FF9635"/>
</g>
<defs>
<clipPath id="clip0_252_6134">
<rect width="257" height="120" fill="white"/>
</clipPath>
</defs>
</svg>
