<svg width="19" height="26" viewBox="0 0 19 26" fill="none" xmlns="http://www.w3.org/2000/svg">
<path d="M18.871 9.43746C18.871 14.6526 9.43351 25.7968 9.43351 25.7968C9.43351 25.7968 0 14.6546 0 9.43746C0 4.23222 4.22233 0 9.43153 0C14.6486 0 18.871 4.2342 18.871 9.43746Z" fill="#FF9635"/>
<path d="M5.21314 8.38957H5.82329V13.6567C5.82329 13.7304 5.88282 13.7903 5.95636 13.7903H12.1877C12.2613 13.7903 12.3208 13.7304 12.3208 13.6567V8.38957H12.9309C12.9798 8.38957 13.0247 8.36267 13.0479 8.31956C13.0712 8.27644 13.069 8.22389 13.0423 8.18283L11.5337 5.86688C11.5091 5.82902 11.4672 5.8064 11.4223 5.8064H6.63943C6.5933 5.8064 6.55054 5.83036 6.52623 5.86973L5.09995 8.18568C5.07458 8.22692 5.07342 8.27867 5.09693 8.32107C5.12044 8.36329 5.16489 8.38957 5.21314 8.38957ZM10.4932 11.3925V13.4339H9.2586V11.3925H10.4932ZM6.72494 10.486V9.54781C6.72494 9.18011 7.02283 8.88099 7.38903 8.88099C7.75522 8.88099 8.05311 9.18011 8.05311 9.54781V10.4859L6.72494 10.486ZM8.40795 10.486V9.54781C8.40795 9.18011 8.70584 8.88099 9.07204 8.88099C9.43823 8.88099 9.73612 9.18011 9.73612 9.54781V10.4859L8.40795 10.486ZM10.091 10.486V9.54781C10.091 9.18011 10.3889 8.88099 10.755 8.88099C11.1212 8.88099 11.4191 9.18011 11.4191 9.54781V10.4859L10.091 10.486ZM8.88575 11.3925V13.4339H7.65126V11.3925H8.88575ZM9.51932 6.9641V7.67697H8.62476V6.9641C8.62476 6.71924 8.82542 6.51998 9.07204 6.51998C9.31865 6.51998 9.51932 6.71924 9.51932 6.9641Z" fill="black"/>
</svg>
