<svg width="19" height="26" viewBox="0 0 19 26" fill="none" xmlns="http://www.w3.org/2000/svg">
<path d="M18.871 9.43746C18.871 14.6526 9.43351 25.7968 9.43351 25.7968C9.43351 25.7968 0 14.6546 0 9.43746C0 4.23222 4.22233 0 9.43153 0C14.6486 0 18.871 4.2342 18.871 9.43746Z" fill="#FFD5AE"/>
<rect width="12.3387" height="12.3387" transform="translate(2.9043 3.62891)" fill="#FFD5AE"/>
<path d="M8.24283 7.8042H7.75503C7.58098 7.8042 7.43945 7.94586 7.43945 8.11977V11.2188H8.55853V8.11977C8.5584 7.94573 8.41688 7.8042 8.24283 7.8042Z" fill="black"/>
<path d="M5.37314 12.883C5.83271 12.883 6.20526 12.5104 6.20526 12.0509C6.20526 11.5913 5.83271 11.2188 5.37314 11.2188C4.91357 11.2188 4.54102 11.5913 4.54102 12.0509C4.54102 12.5104 4.91357 12.883 5.37314 12.883Z" fill="black"/>
<path d="M14.6985 11.4197H14.2394V11.1348L14.4556 10.9186C14.5117 10.8625 14.5117 10.7717 14.4556 10.7157C14.3996 10.6596 14.3088 10.6596 14.2527 10.7157L13.9525 11.0159V11.4197H13.117C13.119 11.4008 13.1203 11.3817 13.1203 11.3623V8.67445C13.1203 7.59154 12.2424 6.71362 11.1595 6.71362H5.19584C4.10499 6.71362 3.2207 7.59791 3.2207 8.68876V11.362C3.2207 11.6473 3.45199 11.8786 3.73725 11.8786H4.26707C4.35019 11.3429 4.81432 10.9317 5.37288 10.9317C5.93145 10.9317 6.39558 11.3431 6.4787 11.8786H12.5752H12.6039H13.9526V12.2003C13.8505 12.2526 13.7804 12.3586 13.7804 12.4811C13.7804 12.6554 13.9216 12.7968 14.0959 12.7968C14.2703 12.7968 14.4115 12.6556 14.4115 12.4811C14.4115 12.3586 14.3415 12.2524 14.2393 12.2003V11.8786H14.6983C14.8252 11.8786 14.9279 11.7758 14.9279 11.649C14.9281 11.5223 14.8253 11.4197 14.6985 11.4197ZM6.00416 9.49708H4.65549V8.11979C4.65549 7.88214 4.84814 7.68936 5.08593 7.68936H5.57373C5.81138 7.68936 6.00416 7.88201 6.00416 8.11979V9.49708ZM8.78749 11.3334C8.78749 11.3968 8.73611 11.4482 8.67276 11.4482H7.32409C7.26074 11.4482 7.20936 11.3968 7.20936 11.3334V8.11979C7.20936 7.81918 7.45391 7.57462 7.75452 7.57462H8.24233C8.54294 7.57462 8.78749 7.81918 8.78749 8.11979V11.3334ZM11.8004 9.49708H10.4517V8.11979C10.4517 7.88214 10.6444 7.68936 10.8822 7.68936H11.37C11.6076 7.68936 11.8004 7.88201 11.8004 8.11979V9.49708Z" fill="black"/>
</svg>
