<svg width="19" height="26" viewBox="0 0 19 26" fill="none" xmlns="http://www.w3.org/2000/svg">
<path d="M18.871 9.43746C18.871 14.6526 9.43351 25.7968 9.43351 25.7968C9.43351 25.7968 0 14.6546 0 9.43746C0 4.23222 4.22233 0 9.43153 0C14.6486 0 18.871 4.2342 18.871 9.43746Z" fill="#F9BF68"/>
<rect width="12.3387" height="12.3387" transform="translate(2.90234 3.62891)" fill="#F9BF68"/>
<path d="M8.95385 7.37972C9.09144 7.51568 9.17006 7.53511 9.32731 7.37972C9.60249 7.10779 9.87766 7.14663 10.0546 7.30202L9.09144 5.8064L8.03004 7.47684C8.06935 7.45741 8.10866 7.43799 8.14797 7.37972C8.38384 7.12721 8.69833 7.10779 8.95385 7.37972Z" fill="black"/>
<path d="M13.7693 13.4787C9.11097 5.70921 10.7227 8.38968 10.3689 7.80697C10.192 7.84582 10.0348 7.72928 9.91685 7.61274C9.77926 7.47677 9.68098 7.45735 9.54339 7.61274C9.26821 7.88467 8.99303 7.88467 8.73751 7.61274C8.59992 7.47677 8.50164 7.45735 8.36405 7.61274C8.22647 7.76813 8.06922 7.86524 7.83335 7.80697C7.47955 8.38968 9.11097 5.68979 4.37397 13.5564C4.33466 13.6341 4.35431 13.7312 4.41328 13.7701C4.4919 13.8089 4.59018 13.7895 4.62949 13.7312L5.1995 12.8377V13.5952H7.77439L9.09131 10.1767L10.4082 13.5564H12.9831V12.8377L13.4942 13.6535C13.5335 13.7312 13.6318 13.7506 13.7104 13.6924C13.789 13.6341 13.8087 13.537 13.7693 13.4787Z" fill="black"/>
</svg>
