<svg width="375" height="812" viewBox="0 0 375 812" fill="none" xmlns="http://www.w3.org/2000/svg">
<mask id="mask0_616_5225" style="mask-type:alpha" maskUnits="userSpaceOnUse" x="0" y="0" width="375" height="813">
<rect width="375" height="812.5" fill="#C4C4C4"/>
</mask>
<g mask="url(#mask0_616_5225)">
<path d="M38.0208 26.0417L33.3333 4.68758L35.9375 -5.20825H-2.08333V129.167L2.60416 95.3126L13.0208 69.2709L38.0208 26.0417Z" fill="white"/>
<path d="M122.917 -3.12492C123.753 -2.08888 169.627 29.2512 192.459 44.7917L225.923 40.2591L256.25 -3.12492H122.917Z" fill="white"/>
<path d="M166.667 130.208L107.292 145.833L119.792 202.083L176.042 192.708L209.375 217.708L251.042 158.333L202.083 94.7917L166.667 130.208Z" fill="white"/>
<path d="M-2.08333 248.958L59.8958 255.729L72.3958 270.313L87.5 274.479L92.7083 300.521H112.5V325.521L105.208 330.729L118.229 353.125L145.312 363.542L140.625 380.208L121.354 370.313L82.8125 416.667L76.0417 404.688L69.2708 406.771L36.9792 400.521L21.3542 370.313L-3.125 358.854L-2.08333 248.958Z" fill="white"/>
<path d="M357.812 612.5L382.812 601.042L401.562 663.021L383.333 831.25L275 822.396L264.062 780.729L248.438 755.729L255.208 735.417L276.562 731.771L284.896 752.083L282.812 770.833L304.167 778.646L320.833 755.729L323.958 756.25L330.729 737.5L326.042 707.292H339.583L338.542 694.271L343.75 696.875L345.312 686.458L350 689.583L345.833 676.563L361.979 664.063L356.25 663.021L351.562 655.729L357.812 625V612.5Z" fill="white"/>
<path d="M322.396 453.125L312.5 466.667L333.854 481.25L328.646 521.354L315.104 537.5L294.792 538.542L272.917 526.563L247.396 523.438L243.229 516.146H256.771L266.146 501.563L262.5 486.979H268.229L270.312 499.479H281.25L287.5 516.146H292.708V492.708L290.104 481.25L292.708 453.125L309.375 435.938L323.958 437.5L322.396 453.125Z" fill="white"/>
<path d="M24.4792 514.063L-9.375 498.958L-11.4583 531.25L40.625 552.604L76.0417 543.75L78.125 552.604L91.6667 548.438L88.5417 536.979L107.292 525.521L76.0417 507.292L53.125 505.208L48.4375 510.417L53.125 513.021L51.0417 516.146L57.2917 518.75L55.2083 525.521L58.8542 527.604L53.125 533.333L40.625 523.438L38.5417 525.521L43.2292 529.688L32.2917 533.333L19.7917 521.875L24.4792 514.063Z" fill="white"/>
<path d="M354.688 306.771L346.354 314.063V331.25L340.104 343.75L351.042 353.125L364.062 348.438L370.833 333.333L368.75 316.667L354.688 306.771Z" fill="white"/>
<path d="M165.104 303.646L158.333 290.104L170.312 286.979L179.167 292.188L184.896 316.146L165.104 303.646Z" fill="white"/>
<path d="M187.5 348.438L200.521 349.479L197.917 363.021L192.708 366.667L187.5 361.458V348.438Z" fill="white"/>
<path d="M254.688 355.729V375.521H247.917L250 384.896L262.5 379.688L259.896 367.708L268.229 363.021L287.5 378.125L290.104 366.146L298.958 361.458V354.167H290.104L285.417 358.854H276.562L273.958 354.167L254.688 355.729Z" fill="white"/>
<path d="M298.438 229.688L279.167 246.354V257.813H289.062L286.979 246.354L301.562 236.979L306.771 227.083H301.562V232.292L298.438 229.688Z" fill="white"/>
<path d="M180.729 280.208L183.854 268.229H191.667L195.312 271.875L190.104 282.292L180.729 280.208Z" fill="white"/>
<path d="M154.557 817.708L164.583 805.208L119.466 777.708L121.973 760.938L95.8333 765.104L80.7292 740.208H54.2969L61.8164 710.208L54.2969 680.208H21.7122L36.7513 730.208L16.6992 712.708L4.16666 726.042L12.4349 750.417L-1.5625 757.708L-29.6875 783.854V808.333L13.8346 832.292L93.2292 827.083H115.104L121.973 800.208L154.557 817.708Z" fill="white"/>
<path d="M98.9583 590.417L106.478 575.417L123.014 559.375L138.639 593.229L157.91 575.417L187.598 590.417L196.452 622.917L230.827 609.375L240.202 660.417L204.232 677.917L184.18 660.417L148.535 665.104L131.543 630.417L108.984 632.917L98.9583 622.917L101.465 612.917L98.9583 590.417Z" fill="white"/>
<path d="M48.9583 71.8751V121.409L84.1557 131.25L98.9583 100.414L84.1557 71.8751H48.9583Z" fill="white"/>
<path fill-rule="evenodd" clip-rule="evenodd" d="M253.101 554.323L234.333 613.755L234.303 613.806C231.439 618.666 227.091 626.087 223.355 632.552C221.486 635.785 219.772 638.778 218.473 641.091C217.163 643.426 216.301 645.026 216.109 645.506C215.989 645.806 215.558 647.16 214.883 649.35C214.213 651.523 213.312 654.488 212.258 657.979C210.151 664.961 207.433 674.042 204.731 683.092C202.722 689.819 200.722 696.532 198.987 702.351C196.059 712.179 193.889 719.459 193.723 719.956C193.637 720.216 193.245 721.074 192.666 722.306C192.076 723.56 191.27 725.247 190.328 727.201C188.445 731.111 186.018 736.098 183.695 740.854C181.814 744.704 180.001 748.403 178.6 751.256L167.188 778.75V822.917H166.146V778.542L177.65 750.827L177.658 750.812C178.996 748.086 180.712 744.586 182.504 740.919L161.438 733.359L152.119 735.947L133.643 733.381L130.145 740.876L116.053 763.021H123.769L127.524 771.066L143.099 788.718L142.318 789.407L126.643 771.642L123.106 764.062H114.155L129.23 740.374L132.59 733.174L110.014 727.906L103.103 733.089L100.527 763.488L115.604 814.435L114.605 814.731L99.4727 763.595L102.105 732.536L108.69 727.597L86.7296 722.473L78.5619 737.788L64.2289 755.704L77.5418 770.041L82.3622 784.502L69.8135 798.097L71.8721 817.654L70.8362 817.763L68.7282 797.737L81.1794 784.248L76.6249 770.584L62.8544 755.754L77.6882 737.212L85.4211 722.713L79.3097 724.459L79.0236 723.458L86.4451 721.337L133.429 732.3L152.048 734.886L161.478 732.266L182.964 739.977C185.224 735.35 187.563 730.542 189.39 726.749C190.331 724.796 191.136 723.113 191.723 721.863C192.321 720.592 192.673 719.812 192.735 719.627C192.895 719.146 195.035 711.968 197.935 702.236C199.68 696.379 201.701 689.598 203.733 682.794C206.435 673.744 209.153 664.661 211.261 657.678C212.315 654.187 213.216 651.219 213.887 649.043C214.553 646.883 215.001 645.47 215.141 645.119C215.366 644.558 216.275 642.88 217.565 640.582C218.867 638.262 220.584 635.265 222.453 632.031C226.178 625.585 230.51 618.191 233.375 613.328L252.108 554.01L253.101 554.323Z" fill="#B3B3B3"/>
<path fill-rule="evenodd" clip-rule="evenodd" d="M133.324 490.524L139.608 522.47L135.466 530.754L143.115 550.131L148.191 552.387L145.419 556.268L151.653 566.139L147.274 573.438H165.465L168.784 582.287L166.364 589.062H170.153L175.049 602.12L172.829 606.313L179.93 610.476L203.349 621.405L236.79 637.354L247.938 620.126L250.568 601.715L259.921 597.864L276.077 606.211L275.076 615.474L288.197 612.446L301.944 627.25L301.181 627.959L287.844 613.596L273.883 616.818L274.965 606.809L259.871 599.011L251.515 602.452L248.937 620.499L237.793 637.721L242.708 639.196V646.138L251.304 654.734L264.7 657.826L264.466 658.841L250.779 655.682L247.135 652.039V662.5H246.094V650.997L241.667 646.57V639.971L236.791 638.508L202.905 622.347L202.901 622.345L179.445 611.399L172.341 607.235L170.168 611.34L165.587 613.376L163.463 631.426L158.643 629.819L151.648 648.307L154.784 651.444L153.351 654.789L174.584 657.822L209.471 667.195L228.871 669.292L234.548 674.453L251.08 672.387L272.013 678.144L271.737 679.148L251.003 673.446L234.202 675.547L228.421 670.291L209.279 668.222L174.374 658.844L153.622 655.88L220.178 765.258L239.32 778.355L241.736 771.589L250.084 763.242L234.334 757.828L222.495 759.981L219.279 741.757L220.305 741.576L223.339 758.769L234.416 756.755L251.04 762.47L261.021 758.976L264.013 747.01L260.567 742.989L271.162 739.281L268.178 732.816L283.379 698.746L284.33 699.171L269.322 732.809L272.588 739.886L262.35 743.469L265.154 746.74L261.895 759.774L251.326 763.473L249.412 765.387L258.189 768.158L261.243 765.104H268.452L277.238 750.115L301.346 739.109L301.779 740.057L277.97 750.926L269.048 766.146H261.674L258.478 769.342L248.582 766.217L242.639 772.16L239.847 779.978L219.405 765.992L211.845 753.567L196.05 748.89L191.781 743.555L192.594 742.904L196.659 747.984L211.039 752.242L152.228 655.592L146.601 652.309L145.084 655.848L133.552 652.179L121.841 670L120.254 676.877L111.851 682.653L109.639 686.525L92.4529 682.913L90.0838 697.04L79.0226 718.817L80.1947 723.84L79.1803 724.077L75.5649 708.582L62.1264 693.65L57.6606 703.574L50.7499 705.169L46.5571 708.43L51.1461 714.549L44.3155 726.108L46.4122 732.923L27.6688 756.352L33.7329 774.039L53.3977 778.696L61.3175 787.144L60.5575 787.856L52.8523 779.637L32.9338 774.92L26.9675 757.518L22.8677 764.807L14.6402 785.89L27.5309 807.546L26.6358 808.079L13.4848 785.985L21.9239 764.36L26.6502 755.958L35.6567 744.7L14.0297 733.383L0.7078 738.507L0.333864 737.535L14.0953 732.242L36.3197 743.871L45.2545 732.702L43.1845 725.975L49.8956 714.618L45.4749 708.724L37.461 703.715L31.829 706.275L19.6536 703.628L7.8125 699.681V710.938H6.77083V699.479H0.363136L-2.89307 697.308L-2.31526 696.442L0.678537 698.438H7.37619L19.9297 702.622L31.7126 705.184L37.539 702.535L45.8008 707.699L50.2918 704.206L56.9227 702.676L61.4068 692.711L58.4757 686.36L55.0517 685.219L56.7038 680.813L53.9062 677.083H50.2072L45.36 667.928L43.3153 662.816L40.2275 660.243L21.875 630.879V626.451L-1.5625 620.721V615.278L-4.58333 611.25L-3.75 610.625L-0.520834 614.931V619.904L22.2006 625.458L27.0447 619.537L28.6458 621.138L33.1291 616.655L53.0744 617.705L57.2275 616.667H79.7964L96.2419 623.862L102.287 617.975L103.141 612.884L107.316 601.923L110.895 588.629L101.531 574.062L102.304 570.232L64.8775 565.078L-10.2403 498.828L-9.55133 498.047L1.62837 507.907L4.18419 498.304L5.19081 498.571L2.50138 508.677L65.3308 564.089L102.51 569.209L113.552 514.48L114.573 514.686L102.636 573.854L111.513 587.663L116.173 582.071L119.3 560.7L127.083 552.398V545.19L132.715 533.926L130.208 530.918V527.386L119.271 521.136V513.542H120.312V520.531L131.25 526.781V530.541L133.224 532.909L138.517 522.322L132.301 490.726L133.324 490.524ZM111.648 589.841L108.309 602.244L104.28 612.818L135.417 633.575V637.898L139.705 646.474L134.352 651.34L144.499 654.569L146.108 650.816L151.066 653.708L111.648 589.841ZM152.521 654.081L153.549 651.681L150.435 648.568L158.023 628.514L162.578 630.033L164.622 612.665L169.416 610.535L173.909 602.047L169.431 590.104H164.886L167.675 582.296L164.743 574.479H145.434L150.43 566.153L144.164 556.232L146.601 552.821L142.302 550.91L134.84 532.006L128.125 545.435V552.81L120.283 561.175L117.161 582.512L112.098 588.587L152.521 654.081ZM104.026 613.9L134.375 634.133V638.144L138.42 646.234L132.934 651.221L120.868 669.584L119.33 676.248L111.065 681.93L109.111 685.35L92.6253 681.885L104.026 613.9ZM101.995 619.713L96.4665 625.097L79.5786 617.708H57.3558L53.1756 618.753L33.5376 617.72L28.6458 622.612L27.122 621.088L22.9167 626.228V630.58L41.0225 659.549L44.1846 662.184L46.3066 667.489L50.8344 676.042H54.4271L57.8795 680.645L56.4066 684.573L59.2326 685.515L62.419 692.419L76.5184 708.084L78.6548 717.24L89.0829 696.71L101.995 619.713Z" fill="#B3B3B3"/>
<path fill-rule="evenodd" clip-rule="evenodd" d="M378.272 626.199L379.019 626.926L360.846 645.618L351.562 664.185V681.771H360.708L364.938 688.645L373.636 692.227L373.239 693.19L364.228 689.48L360.126 682.812H351.562V700.521H350.521V663.94L359.987 645.007L378.272 626.199Z" fill="#B3B3B3"/>
<path fill-rule="evenodd" clip-rule="evenodd" d="M40.6433 485.8L45.3308 468.613L46.3358 468.887L41.6483 486.075L40.6433 485.8Z" fill="#B3B3B3"/>
<path fill-rule="evenodd" clip-rule="evenodd" d="M-7.88366 258.591L15.5964 298.768L17.6705 308.62L25.4455 317.95L44.6671 360.549L49.723 362.957L68.4608 352.69L103.85 324.586L139.275 298.539L139.892 299.378L104.483 325.414L69.0392 353.56L47.7386 365.232L62.3845 388.728L99.3129 423.056L98.6037 423.819L61.6425 389.461L37.4521 370.868L30.918 374.449L20.0849 377.028L11.4017 387.754L9.89583 392.272V397.054L6.36563 401.593L9.87471 407.107L11.4114 417.864L30.9153 426.076L76.2301 441.702L99.1648 451.605L98.7519 452.561L75.8533 442.673L30.543 427.049L10.4636 418.595L8.87529 407.477L5.0927 401.532L8.85416 396.696V392.103L10.4733 387.246L18.8729 376.87L9.31089 374.479H-8.33333V373.438H9.43912L19.7947 376.026L30.5404 373.468L43.5792 366.323L36.0698 351.428L-8.57056 328.589L-8.09611 327.661L36.8469 350.655L44.4933 365.822L48.5964 363.574L43.8746 361.326L24.5544 318.508L16.7045 309.088L14.6119 299.148L-8.78301 259.117L-7.88366 258.591ZM38.4501 370.322L60.015 386.896L46.8237 365.733L38.4501 370.322Z" fill="#B3B3B3"/>
<path fill-rule="evenodd" clip-rule="evenodd" d="M353.093 729.107L355.767 776.707L339.505 772.912L318.191 771.353L318.267 770.314L339.662 771.879L354.649 775.376L352.115 730.268L316.205 734.372L316.087 733.337L353.093 729.107Z" fill="#B3B3B3"/>
<path fill-rule="evenodd" clip-rule="evenodd" d="M90.8078 28.2049L64.3219 -1.91632L65.8864 -3.29202L92.5255 27.0034L123.562 83.8805L160.308 57.3578L153.691 23.3883L160.677 -0.520833H197.78L229.791 26.7672L296.344 69.9229L358.482 99.7083L377.775 70.2625L379.517 71.4042L359.226 102.375L295.323 71.7437L228.543 28.4411L197.012 1.5625H162.239L155.832 23.4867L162.608 58.2672L124.568 85.7238L204.613 232.411L212.506 259.05L228.576 244.442L254.793 231.601L272.294 244.329L286.474 246.861L303.621 244.34L308.804 238.121L321.013 235.466L347.079 222.955L378.475 217.723L378.817 219.777L347.713 224.961L321.695 237.45L309.946 240.004L304.712 246.285L286.442 248.972L271.456 246.296L254.582 234.024L229.758 246.183L213.34 261.108L229.967 286.301L251.434 306.197L261.956 340.395L267.16 375.779L280.408 410.937H295.312V426.834L310.143 455.984L383.783 491.248L382.883 493.127L308.607 457.558L293.229 427.333V413.021H280.962L287.5 445.208V492.278L280.776 530.553L295.284 557.496L302.585 622.962L308.557 608.63L325.743 599.5L357.398 596.906L382.665 575.764L384.002 577.361L358.227 598.928L326.341 601.541L310.193 610.12L303.062 627.235L326.035 833.218L323.965 833.449L293.258 558.129L278.599 530.905L285.417 492.097V470.477L192.399 519.542L142.241 598.958H-25V596.875H141.093L190.935 517.958L285.417 468.122V445.417L278.765 412.67L260.654 403.111L211.583 400.501L183.575 377.585L178.299 385.74L159.932 393.087L121.073 427.8L89.3191 467.884L-12.8089 568.969L-14.2744 567.489L87.7642 466.491L119.552 426.366L158.818 391.288L176.91 384.052L181.827 376.453L170.036 370.558L123.636 267.852L84.2172 237.25L74.955 228.503L34.4206 212.912L-11.5038 183.166L-10.3712 181.417L35.371 211.046L75.3859 226.436L87.7537 218.026L106.45 184.788L123.721 166.994L123.732 166.983L140.515 149.15L153.329 142.778L90.8078 28.2049ZM154.327 144.608L141.777 150.85L125.232 168.428L108.133 186.045L89.5292 219.119L87.4025 229.449L120.534 238.044L171.062 246.899L191.981 252.652L210.396 259.263L202.678 233.214L154.327 144.608ZM211.301 261.801L191.352 254.64L170.605 248.934L120.091 240.081L86.9818 231.492L86.0469 236.033L125.322 266.523L171.63 369.025L183.653 375.037L203.568 378.101L223.594 371.939L236.76 366.146H250.795L264.805 374.085L259.919 340.855L249.608 307.345L228.366 287.658L211.301 261.801ZM265.304 376.762L250.246 368.229H237.198L224.322 373.894L203.724 380.233L186.946 377.651L212.375 398.457L261.221 401.055L277.744 409.776L265.304 376.762ZM84.2524 234.418L77.1783 227.737L87.0035 221.056L84.2524 234.418Z" fill="#B3B3B3"/>
<path fill-rule="evenodd" clip-rule="evenodd" d="M268.174 545.477L281.101 534.619L282.441 536.214L269.326 547.231L252.549 555.619L251.617 553.756L268.174 545.477Z" fill="#B3B3B3"/>
<path fill-rule="evenodd" clip-rule="evenodd" d="M362.5 542.924L356.403 536.827L357.139 536.09L363.542 542.493V563.542H362.5V542.924Z" fill="#B3B3B3"/>
<path fill-rule="evenodd" clip-rule="evenodd" d="M332.262 146.027L326.6 173.051L332.242 180.489L340.625 208.256V226.562H339.583V208.41L331.299 180.969L326.317 174.402L320.82 200.638L312.955 231.572L306.733 235.72L302.154 268.539L322.316 270.304L355.946 256.641L359.53 262.615L351.426 269.368L338.951 286.781L332.359 294.388L336.139 305.729H317.59L311.489 329.117L327.814 364.319L335.896 358.614L334.095 346.52L339.663 336.179L358.475 310.573L389.259 286.051L389.908 286.866L359.233 311.302L340.692 336.538L351.4 364.583H363.924L372.925 393.177L368.255 435.733L400.874 465.763L400.168 466.529L367.162 436.142L371.866 393.281L363.16 365.625H350.683L340.023 337.707L335.176 346.709L337.021 359.095L328.238 365.294L344.32 406.277L326.739 440.922L403.365 480.788L402.885 481.712L325.344 441.37L343.18 406.223L327.125 365.309L311.075 330.702L305.164 353.362L297.409 363.185L298.961 384.917L294.786 412.058L293.756 411.9L297.914 384.875L296.386 363.483L271.585 360.283L275.572 371.939L260.398 396.532L256.182 429.733L222.883 426.562L191.716 425.54L194.295 454.938L162.633 477.629L151.707 476.068L121.807 499.148L90.755 463.886L91.5367 463.197L121.943 497.727L151.418 474.974L162.367 476.538L193.205 454.437L190.576 424.46L222.934 425.521L222.95 425.522L222.966 425.523L255.276 428.6L259.393 396.177L274.428 371.811L270.433 360.134L264.55 359.375H240.911L221.449 337.283L215.146 326.179L204.006 336.835L204 336.84L190.057 349.75L184.363 375.633L183.346 375.409L189.11 349.208L202.923 336.418L183.379 313.788L179.746 299.256L162.188 285.313L162.176 285.304L125.183 257.689L110.88 243.916L112.516 237.374L113.526 237.626L112.037 243.584L125.859 256.894L162.678 284.379L238.65 285.94L247.499 289.583H260.067L285.458 308.238L296.395 302.272L305.766 235.113L312.045 230.928L319.805 200.403L331.279 145.64L358.408 100.772L359.373 101.086L353.664 167.521L377.984 193.393L377.225 194.107L352.586 167.896L358.144 103.223L332.262 146.027ZM284.961 309.165L259.725 290.625H247.293L238.434 286.977L164.033 285.448L180.507 298.531L211.324 317.334L215.392 324.502L227.378 313.037L259.928 310.412L286.779 315.985L284.961 309.165ZM286.707 317.034L259.863 311.463L227.83 314.046L215.922 325.436L222.301 336.675L241.381 358.333H264.272L267.772 351.834L286.707 317.034ZM265.401 358.434L270.057 359.035L268.122 353.38L265.401 358.434ZM271.209 359.184L296.649 362.467L304.211 352.888L316.785 304.688H334.694L331.183 294.154L338.132 286.136L350.657 268.653L358.178 262.385L355.512 257.942L322.476 271.363L302.01 269.572L297.355 302.936L286.025 309.115L288.057 316.733L268.796 352.131L271.209 359.184ZM214.616 325.244L210.551 318.083L181.022 300.065L184.329 313.295L203.682 335.703L214.616 325.244Z" fill="#B3B3B3"/>
<path fill-rule="evenodd" clip-rule="evenodd" d="M-8.22744 96.1481L-7.39756 95.5185L15.4988 125.7L50.3839 161.106L87.3707 204.344L101.409 219.942L114.259 231.25H124.069L152.295 243.795L151.872 244.747L123.848 232.292H113.866L100.675 220.683L86.5833 205.026L49.6161 161.811L14.7095 126.383L-8.22744 96.1481Z" fill="#B3B3B3"/>
<path fill-rule="evenodd" clip-rule="evenodd" d="M198.427 -1.66464L200.561 9.00386L192.765 17.9131L189.79 15.4338L181.779 34.4612L183.832 61.6673L248.01 99.1473L250.507 77.178L244.991 66.1458H249.12L254.688 51.467V42.9343L259.477 40.0607L252.11 34.6584L250.531 19.4005L245.353 6.97115L246.314 6.57051L251.552 19.1411L253.098 34.0916L261.357 40.1476L255.729 43.5241V51.658L249.839 67.1875H246.676L251.577 76.9886L248.958 100.03V126.504L253.119 144.708L255.723 171.791L260.946 194.246L255.724 232.362L254.692 232.221L259.888 194.295L254.693 171.959L252.089 144.875L247.917 126.621V100.299L182.835 62.291L180.721 34.2888L189.376 13.7328L192.651 16.4619L199.439 8.70447L197.406 -1.46036L198.427 -1.66464Z" fill="#B3B3B3"/>
<path fill-rule="evenodd" clip-rule="evenodd" d="M117.99 -4.60478L154.798 19.0577L152.448 25.5208H146.718L137.52 50.5603L142.389 73.8276L110.238 58.8605L122.829 52.8387L119.713 40.3743L131.074 33.6607L117.25 8.05997L118.167 7.56503L132.467 34.0476L120.912 40.8757L124.046 53.4113L112.679 58.8478L140.944 72.0057L136.439 50.4814L145.991 24.4792H151.719L153.535 19.4839L117.427 -3.72855L117.99 -4.60478Z" fill="#B3B3B3"/>
<path fill-rule="evenodd" clip-rule="evenodd" d="M191.225 120.068C179.588 101.484 156.124 64.0307 155.296 62.7889L156.163 62.2111C156.997 63.4621 180.211 100.515 191.906 119.192L222.243 111.346L232.273 148.301L231.268 148.574L221.507 112.612L191.428 120.391L191.225 120.068Z" fill="#B3B3B3"/>
<path fill-rule="evenodd" clip-rule="evenodd" d="M250.07 84.6361L250.971 84.1139L283.073 139.531L298.512 136.96L315.325 144.841L314.883 145.784L298.363 138.04L283.631 140.494L300.621 169.824L286.553 189.102L295.248 204.958L294.335 205.459L285.322 189.023L299.379 169.759L250.07 84.6361Z" fill="#B3B3B3"/>
<path fill-rule="evenodd" clip-rule="evenodd" d="M258.854 11.3901V-4.6875H257.812V11.5266L259.956 19.5664L287.841 42.5593L286.593 44.4324L281.972 48.0264L282.611 48.8486L285.782 46.3828L280.246 60.2232L281.213 60.6101L287.443 45.0354L288.649 43.2254L289.859 44.2228L322.065 53.0536L343.501 86.5141L369.271 81.6823V71.2456L358.128 73.3681L350.935 56.4133L295.511 22.6311L291.707 36.7613L288.422 41.6881L260.877 18.9752L258.854 11.3901ZM289.23 42.3542L290.349 43.2772L322.726 52.1548L343.999 85.3609L368.229 80.8177V72.5044L357.497 74.5486L350.107 57.1284L296.156 24.2439L292.668 37.197L289.23 42.3542Z" fill="#B3B3B3"/>
<path fill-rule="evenodd" clip-rule="evenodd" d="M354.006 24.6006L340.538 4.39859L339.671 4.97641L353.223 25.3048L346.656 31.2151L358.854 44.474V56.25H359.896V44.0677L348.136 31.2849L360.501 20.1558L367.83 23.8204L377.129 44.4846L378.079 44.0571L368.628 23.0546L361.333 19.4072L373.786 8.19963L373.089 7.42537L354.006 24.6006Z" fill="#B3B3B3"/>
<path fill-rule="evenodd" clip-rule="evenodd" d="M130.361 241.514L131.097 240.778L137.242 246.922L184.024 257.838L196.822 263.704L201.531 291.434L212.279 303.719L233.366 310.919L260.424 305.195L290.795 312.526L312.715 322.442L312.285 323.391L290.455 313.516L260.409 306.263L233.301 311.998L211.679 304.615L200.553 291.899L195.887 264.421L183.685 258.829L136.716 247.869L130.361 241.514Z" fill="#B3B3B3"/>
<path fill-rule="evenodd" clip-rule="evenodd" d="M75.5208 17.4403V-4.6875H76.5625V17.9764L65.5284 25.8579L59.3354 40.8241L58.3729 40.4259L64.68 25.1838L75.5208 17.4403Z" fill="#B3B3B3"/>
<path fill-rule="evenodd" clip-rule="evenodd" d="M11.8522 40.6162L-6.81409 39.0607L-6.72758 38.0226L12.1061 39.5921L44.5124 53.4046L28.3659 79.4473L38.404 83.7494L47.5992 73.5325L68.5265 63.592L68.9735 64.533L59.1117 69.2173L62.6444 74.2955L66.3906 71.9542L66.9427 72.8375L62.3556 75.7044L58.1579 69.6703L48.2342 74.3841L43.9299 79.1667L48.1882 83.8982L58.4355 85.9476L58.2312 86.9691L47.6451 84.8518L43.2292 79.9452L38.9646 84.6837L35.5932 90.4632L226.33 217.275L225.753 218.142L34.6431 91.0824L13.7987 81.7024L-9.683 64.4825L-9.067 63.6425L14.3263 80.7976L34.6821 89.9577L37.7949 84.6216L26.8424 79.9277L42.9876 53.8871L11.8522 40.6162Z" fill="#B3B3B3"/>
</g>
</svg>
