<?xml version="1.0" encoding="UTF-8"?><svg id="a" xmlns="http://www.w3.org/2000/svg" xmlns:xlink="http://www.w3.org/1999/xlink" viewBox="0 0 257 251"><defs><style>.c{fill:none;}.d{fill:#f9bf68;}.e{fill:#65c5a2;}.f{fill:#f1f1f1;}.g{fill:#ffb7b7;}.h{fill:#e5e5e5;}.i{fill:#ff9635;}.j{fill:#ff7144;}.k{fill:#cbcbcb;}.l{fill:#3f3d56;}.m{fill:#2f2e41;}.n{clip-path:url(#b);}.o{isolation:isolate;opacity:.2;}</style><clipPath id="b"><rect class="c" width="257" height="251"/></clipPath></defs><g class="n"><g><path class="l" d="M228.23,221.89s.2-4.13,4.22-3.65l-4.22,3.65Z"/><path class="d" d="M227.09,217.96c1.11,0,2.01-.9,2.01-2.02s-.9-2.02-2.01-2.02-2.02,.9-2.02,2.02,.9,2.02,2.02,2.02Z"/><path class="l" d="M227.33,219.34h-.57v4h.57v-4Z"/><path class="h" d="M91.39,100.47c0,1.01-.03,2.01-.1,3.01-.37,5.74-1.81,11.35-4.26,16.55-.02,.04-.04,.08-.06,.13-.11,.24-.23,.48-.35,.72-.73,1.47-1.53,2.9-2.42,4.28-4.03,6.34-9.56,11.59-16.1,15.28-6.53,3.69-13.87,5.71-21.37,5.88l.45,26.07,5.89-3.11,1.05,2.01-6.9,3.65,.84,48.42v.65l-4.55,1.02v-.65l1.44-78.05c-6.03-.09-11.99-1.38-17.52-3.79-5.53-2.42-10.53-5.91-14.71-10.28-.29-.3-.57-.61-.85-.91-.01-.01-.02-.02-.03-.03-3.48-3.81-6.29-8.18-8.32-12.92,.04,.05,.09,.1,.14,.15-4.59-10.76-4.9-22.88-.87-33.87,4.03-10.99,12.09-20.01,22.54-25.22,.16-.08,.32-.16,.48-.23,10.33-4.99,22.16-5.91,33.14-2.57,10.98,3.34,20.3,10.7,26.12,20.62,.28,.47,.55,.95,.81,1.43,3.62,6.69,5.51,14.18,5.5,21.8Z"/><path class="e" d="M85.24,120.18c33.08,0,59.89-26.9,59.89-60.09S118.32,0,85.24,0,25.35,26.9,25.35,60.09s26.82,60.09,59.89,60.09Z"/><path class="o" d="M41.02,19.95c-13,30.52,1.11,65.83,31.53,78.88,11.54,4.95,24.34,6.14,36.59,3.4,12.25-2.74,23.33-9.28,31.68-18.68-13,30.52-48.2,44.68-78.62,31.64-30.42-13.04-44.54-48.36-31.54-78.88,2.55-5.98,6.04-11.5,10.36-16.36Z"/><path class="l" d="M88.48,227.49l-6.12-1.72v-.66l1.85-99.95,.09-4.98v-.15l.32-17.46,.46-25.31h0l.32-17.16h.17l.32,18.59,.42,24.19,.3,17.17v.83h.01l.58,33.47,.06,3.32,1.2,69.16v.67Z"/><path class="l" d="M94.93,150.26l-9.9,5.23,1.38,2.63,9.9-5.23-1.38-2.63Z"/><path class="k" d="M84.07,239.59h-28.24v.63h28.24v-.63Z"/><path class="k" d="M135.89,250.37h-28.24v.63h28.24v-.63Z"/><path class="k" d="M216.47,242.12h-28.24v.63h28.24v-.63Z"/><path class="f" d="M203.57,216.32v-18.44s7.16,13.07,0,18.44Z"/><path class="f" d="M204.01,216.32l-13.54-12.47s14.45,3.55,13.54,12.47Z"/><path class="f" d="M63.58,220.76v-18.44s7.16,13.08,0,18.44Z"/><path class="f" d="M64.03,220.76l-13.54-12.47s14.45,3.55,13.54,12.47Z"/><path class="f" d="M112.25,234.08v-22.93s8.91,16.26,0,22.93Z"/><path class="f" d="M112.8,234.07l-16.84-15.51s17.96,4.41,16.84,15.51Z"/><path class="k" d="M257,231.27l-.17,.61-53.03-15.15-39.95,8.84-51.09,8.76-.07-.02-24.2-6.81-6.12-1.72-18.68-5.26-15.58,3.48-4.56,1.02-9.91,2.22-.14-.62,10.05-2.25,4.54-1.01,15.61-3.49,.08,.02,18.6,5.24,6.09,1.72,24.31,6.85,50.94-8.73,40.09-8.87,.08,.02,53.11,15.18Z"/><path class="l" d="M162.12,38.5l4.04-3.24c-3.14-.35-4.43,1.37-4.96,2.73-2.45-1.02-5.12,.32-5.12,.32l8.09,2.95c-.41-1.09-1.12-2.05-2.05-2.75Z"/><path class="l" d="M13.6,37.23l4.04-3.24c-3.14-.35-4.43,1.37-4.96,2.73-2.45-1.02-5.12,.32-5.12,.32l8.09,2.95c-.41-1.09-1.12-2.05-2.05-2.75Z"/><path class="l" d="M153.27,99.05l4.04-3.24c-3.14-.35-4.43,1.37-4.96,2.73-2.45-1.02-5.12,.32-5.12,.32l8.09,2.95c-.41-1.09-1.12-2.05-2.05-2.75Z"/><path class="g" d="M125.81,238.59l3.09,1.15,5.9-11.41-4.56-1.7-4.43,11.96Z"/><path class="m" d="M125.4,237.29l6.08,2.27h0c1.03,.38,1.86,1.16,2.32,2.16,.46,1,.5,2.14,.12,3.18l-.05,.13-9.96-3.71,1.49-4.02Z"/><path class="g" d="M156.22,241.81h3.3l1.57-12.76h-4.86v12.76Z"/><path class="m" d="M155.65,240.73h6.49c1.1,0,2.15,.44,2.93,1.22,.78,.78,1.21,1.83,1.21,2.93v.13h-10.63v-4.29Z"/><path class="m" d="M141.13,153.34l1.07-2.16,9.14,4.59-.27,1.89,1.75,2.29s2.96,1.62,2.42,7.01l-.54,5.13-.67,6.61,4.71,16.32,2.42,21.58,1.75,17.4-8.47-.4-7.8-28.32-13.71,30.48-9.41-2.43,12.91-30.22,1.61-12.68s-1.07-6.74,4.03-11.33l-.81-2.43v-2.99l-2.69-14.27,2.56-6.07Z"/><path class="o" d="M140.88,184.18l-.3,.09,5.92,21.04,.3-.09-5.92-21.04Z"/><path class="l" d="M141.4,180.04h13.18v-1.35h-13.18v1.35Z"/><path class="l" d="M154.58,180.85c.3,0,.54-.6,.54-1.35s-.24-1.35-.54-1.35-.54,.6-.54,1.35,.24,1.35,.54,1.35Z"/><path class="g" d="M154.92,146.99c1.9-3.49,.62-7.85-2.85-9.76-3.47-1.9-7.83-.62-9.73,2.86-1.9,3.49-.62,7.85,2.85,9.76,3.47,1.9,7.83,.62,9.73-2.86Z"/><path class="m" d="M137.67,140.97c3.5,0,6.34-2.85,6.34-6.36s-2.84-6.36-6.34-6.36-6.34,2.85-6.34,6.36,2.84,6.36,6.34,6.36Z"/><path class="m" d="M129.62,133.93c-.25,.84-.32,1.73-.21,2.6s.4,1.71,.84,2.47c.45,.76,1.05,1.41,1.76,1.92,.71,.51,1.52,.87,2.38,1.05s1.74,.18,2.6,0c.86-.18,1.67-.54,2.38-1.05,.71-.51,1.31-1.16,1.76-1.92,.45-.76,.74-1.6,.85-2.47-.45,1.53-1.47,2.83-2.83,3.65-1.37,.82-2.99,1.09-4.55,.76-1.56-.33-2.93-1.23-3.86-2.53-.92-1.3-1.33-2.9-1.13-4.49Z"/><path class="m" d="M154.67,141.54c.19,1.64-.17,3.3-1.02,4.72-.85,1.42-2.14,2.52-3.68,3.12-1.53,.61-3.23,.69-4.81,.23-1.59-.46-2.98-1.42-3.96-2.75-.98-1.33-1.5-2.95-1.47-4.6,.03-1.65,.6-3.26,1.62-4.55,1.02-1.3,2.45-2.22,4.05-2.62,1.6-.4,3.29-.27,4.8,.39,1.25-1.01,2.8-.7,4.07,.37,1.43,1.21,1.85,2.04,2.96,4.03-1.09,.15-1.46,1.5-2.55,1.66Z"/><path class="i" d="M128.32,163.17c.08,2.13,.24,6.33,.24,6.54,0,.23,3.17,6.81,4.54,9.64h0c.1,.2,.18,.38,.26,.54,.11,.22,.27,.4,.48,.53,.21,.13,.45,.19,.69,.19l5.98-.11c.33,0,.64-.14,.88-.37,.23-.23,.37-.55,.38-.88l.67-26.41c0-.09-.01-.17-.04-.25-.03-.08-.08-.15-.14-.22-.06-.06-.13-.11-.21-.15-.08-.03-.17-.05-.25-.05h-7.72c-.33,0-.65,.09-.92,.27s-.5,.42-.64,.72l-3.7,7.69c-.35,.72-.51,1.52-.48,2.32h0Z"/><path class="j" d="M141.88,177.45c1.54-.93,2.92-2.1,4.09-3.47,2.73-3.08,4.38-6.96,4.73-11.06,.3-3.51-.39-6.12-2.06-7.76-2.13-2.08-5.02-1.78-5.15-1.76h-.13l-1.96,1.68,.55,.66,1.76-1.49c.54-.03,2.73-.03,4.33,1.54,1.48,1.45,2.08,3.82,1.8,7.06-.32,3.91-1.9,7.6-4.49,10.54-1.12,1.3-2.43,2.41-3.88,3.31l.41,.76Z"/><path class="l" d="M130.74,167.41l-.06,.28,10.46,2.15,.06-.28-10.46-2.15Z"/><path class="l" d="M137.63,152.17l-.68,16.69h.29l.68-16.68h-.29Z"/><path class="l" d="M128.32,163.17c.08,2.13,.24,6.33,.24,6.54,0,.23,3.17,6.81,4.54,9.64l-2.55-14.87c-.1-.57-.35-1.11-.72-1.55s-.86-.78-1.4-.98c-.09,.4-.12,.81-.1,1.21Z"/><path class="g" d="M144.01,194.33c-.23-.29-.38-.63-.47-.99-.08-.36-.08-.74,0-1.1,.08-.36,.23-.7,.46-1,.22-.29,.51-.54,.83-.71l-.52-5.76,3.41-1.17,.62,8.14c.25,.57,.29,1.21,.1,1.8-.19,.59-.59,1.1-1.12,1.41-.53,.32-1.16,.43-1.77,.31-.61-.12-1.15-.46-1.53-.95Z"/><path class="k" d="M141.77,159.58c-.07-.87,.16-1.75,.64-2.48,.48-.73,1.19-1.28,2.02-1.56,.73-.24,1.52-.24,2.25,0,.78,.27,1.46,.77,1.94,1.45,.48,.67,.73,1.48,.73,2.31l.26,29.24-6.04,.22-1.79-29.18Z"/></g></g></svg>