<svg width="15" height="18" viewBox="0 0 15 18" fill="none" xmlns="http://www.w3.org/2000/svg">
<path fill-rule="evenodd" clip-rule="evenodd" d="M7.8007 0C5.70783 0 4.01123 1.6966 4.01123 3.78947C4.01123 5.88234 5.70783 7.57895 7.8007 7.57895C9.89354 7.57895 11.5902 5.88234 11.5902 3.78947C11.5902 1.6966 9.89354 0 7.8007 0ZM4.9586 3.78947C4.9586 2.21983 6.23101 0.947368 7.8007 0.947368C9.3704 0.947368 10.6428 2.21983 10.6428 3.78947C10.6428 5.35912 9.3704 6.63158 7.8007 6.63158C6.23101 6.63158 4.9586 5.35912 4.9586 3.78947Z" fill="white"/>
<path fill-rule="evenodd" clip-rule="evenodd" d="M7.80009 9.94737C3.87595 9.94737 0.694824 13.1285 0.694824 17.0526V18H14.9054V17.0526C14.9054 13.1285 11.7242 9.94737 7.80009 9.94737ZM1.64219 17.0526C1.64219 13.6518 4.39918 10.8947 7.80009 10.8947C11.201 10.8947 13.958 13.6518 13.958 17.0526H1.64219Z" fill="white"/>
</svg>
