<svg width="16" height="18" viewBox="0 0 16 18" fill="none" xmlns="http://www.w3.org/2000/svg">
<path fill-rule="evenodd" clip-rule="evenodd" d="M8.00039 4.27539C6.42634 4.27539 5.15039 5.55138 5.15039 7.12539C5.15039 8.69945 6.42634 9.97539 8.00039 9.97539C9.57445 9.97539 10.8504 8.69945 10.8504 7.12539C10.8504 5.55138 9.57445 4.27539 8.00039 4.27539ZM6.10039 7.12539C6.10039 6.07605 6.95102 5.22539 8.00039 5.22539C9.04976 5.22539 9.90039 6.07605 9.90039 7.12539C9.90039 8.17476 9.04976 9.02539 8.00039 9.02539C6.95102 9.02539 6.10039 8.17476 6.10039 7.12539Z" fill="white"/>
<path fill-rule="evenodd" clip-rule="evenodd" d="M8 0C4.06497 0 0.875 3.15481 0.875 7.04648C0.875 8.32528 1.32557 9.63526 1.96738 10.8594C2.61133 12.0876 3.46442 13.2607 4.30834 14.2742C5.15341 15.289 5.99716 16.1532 6.62915 16.7633C6.94541 17.0686 7.20941 17.311 7.39495 17.4777C7.48767 17.5611 7.56091 17.6254 7.61136 17.6694C7.63653 17.6913 7.65601 17.7082 7.6694 17.7196C7.67615 17.7254 7.68127 17.7298 7.68488 17.7329L7.68906 17.7365L7.69068 17.7378C7.69078 17.7379 7.69087 17.738 8 17.3813L7.69087 17.738L8 18L8.30913 17.738L8 17.3813C8.30913 17.738 8.30922 17.7379 8.30932 17.7378L8.31094 17.7365L8.31512 17.7329C8.31873 17.7298 8.32385 17.7254 8.3306 17.7196C8.34399 17.7082 8.36347 17.6913 8.38864 17.6694C8.43909 17.6254 8.51233 17.5611 8.60505 17.4777C8.79059 17.311 9.05459 17.0686 9.37085 16.7633C10.0029 16.1532 10.8466 15.289 11.6917 14.2742C12.5356 13.2607 13.3887 12.0876 14.0326 10.8594C14.6744 9.63526 15.125 8.32528 15.125 7.04648C15.125 3.15481 11.935 0 8 0ZM8.70727 16.091C8.41895 16.3694 8.17603 16.5931 8 16.7519C7.82397 16.5931 7.58105 16.3694 7.29272 16.091C6.67788 15.4973 5.85909 14.6586 5.04166 13.6768C4.22308 12.6938 3.41367 11.5768 2.81075 10.4269C2.20568 9.27279 1.825 8.11651 1.825 7.04648C1.825 3.67371 4.58964 0.939531 8 0.939531C11.4104 0.939531 14.175 3.67371 14.175 7.04648C14.175 8.11651 13.7943 9.27279 13.1893 10.4269C12.5863 11.5768 11.7769 12.6938 10.9583 13.6768C10.1409 14.6586 9.32211 15.4973 8.70727 16.091Z" fill="white"/>
</svg>
