<svg width="49" height="18" viewBox="0 0 49 18" fill="none" xmlns="http://www.w3.org/2000/svg">
<path fill-rule="evenodd" clip-rule="evenodd" d="M24.8007 0C22.7078 0 21.0112 1.6966 21.0112 3.78947C21.0112 5.88234 22.7078 7.57895 24.8007 7.57895C26.8935 7.57895 28.5902 5.88234 28.5902 3.78947C28.5902 1.6966 26.8935 0 24.8007 0ZM21.9586 3.78947C21.9586 2.21983 23.231 0.947368 24.8007 0.947368C26.3704 0.947368 27.6428 2.21983 27.6428 3.78947C27.6428 5.35912 26.3704 6.63158 24.8007 6.63158C23.231 6.63158 21.9586 5.35912 21.9586 3.78947Z" fill="white"/>
<path fill-rule="evenodd" clip-rule="evenodd" d="M24.8001 9.94736C20.876 9.94736 17.6948 13.1285 17.6948 17.0526V18H31.9054V17.0526C31.9054 13.1285 28.7242 9.94736 24.8001 9.94736ZM18.6422 17.0526C18.6422 13.6518 21.3992 10.8947 24.8001 10.8947C28.201 10.8947 30.958 13.6518 30.958 17.0526H18.6422Z" fill="white"/>
</svg>
