<svg width="19" height="18" viewBox="0 0 19 18" fill="none" xmlns="http://www.w3.org/2000/svg">
<path d="M18.2 9C18.2 4.14084 14.2281 0 9.19995 0C4.14533 0 0.199951 4.17094 0.199951 9C0.199951 14.0358 4.50589 18 9.19995 18C13.959 18 18.2 13.9607 18.2 9ZM0.798451 9.28125C1.17645 9.28125 -0.570112 9.28097 4.49098 9.28209C4.52051 9.73237 4.61276 10.1647 4.76014 10.5719C4.73145 10.584 3.17501 11.2435 3.27233 11.2025C3.13029 11.2652 3.06561 11.4311 3.12833 11.5732C3.17473 11.6783 3.27767 11.7411 3.38595 11.7411C3.49058 11.7411 3.43658 11.7357 4.98233 11.0888C5.17104 11.4632 5.40758 11.808 5.68461 12.1171L4.53739 13.2646C4.53711 13.2649 4.53711 13.2652 4.53683 13.2654L3.07629 14.726C1.72658 13.2908 0.874951 11.3839 0.798451 9.28125ZM3.04873 3.24619C3.30748 3.50494 2.13214 2.32987 5.65789 5.85534C5.36511 6.18778 5.11958 6.56072 4.92833 6.96572L3.46554 6.37256L3.44726 6.36581C3.30326 6.31181 3.15195 6.38719 3.09598 6.53062C3.04001 6.67406 3.11905 6.83887 3.26136 6.89681L4.71739 7.48744C4.58773 7.87809 4.51039 8.29153 4.48761 8.71959C4.11017 8.71959 5.85476 8.71988 0.796482 8.71875C0.860045 6.60825 1.70295 4.69097 3.04873 3.24619ZM17.6029 8.71875C16.5749 8.71903 14.9411 8.71931 13.9131 8.71959C13.889 8.2665 13.802 7.83056 13.6586 7.41966C14.0588 7.25034 15.1023 6.81159 15.1388 6.79359C15.275 6.72609 15.3261 6.56578 15.2626 6.42769C15.1993 6.28959 15.0305 6.22856 14.8908 6.28931L13.4412 6.90103C13.2547 6.5205 13.0196 6.16922 12.7423 5.8545C16.2889 2.30822 15.086 3.51084 15.3509 3.24619C16.697 4.69097 17.5399 6.60825 17.6029 8.71875ZM9.20304 13.1344C9.2022 13.1344 9.20164 13.1338 9.20108 13.1338C9.20023 13.1338 9.19967 13.1344 9.19883 13.1344C6.91761 13.1333 5.03801 11.2762 5.03801 8.97188C5.03801 6.67547 6.91029 4.81163 9.19658 4.80938C9.19826 4.80938 9.19939 4.81022 9.20108 4.81022C9.20248 4.81022 9.20389 4.80938 9.2053 4.80938C11.4637 4.81191 13.3636 6.64959 13.3636 8.97188C13.3633 11.2632 11.4995 13.133 9.20304 13.1344ZM12.3463 5.45569C12.0164 5.16009 11.6454 4.91119 11.2421 4.71684L11.8336 3.25884C11.9067 3.07856 11.7785 2.87072 11.5729 2.87072C11.4519 2.87072 11.349 2.9475 11.309 3.05494L10.7221 4.50225C10.3295 4.36809 9.91376 4.28625 9.48261 4.26066C9.48261 3.88322 9.48289 5.62781 9.48176 0.569531C11.5954 0.639563 13.5129 1.49231 14.9546 2.84766C14.708 3.09403 15.8639 1.93838 12.3463 5.45569ZM8.91954 4.26066C8.46364 4.28766 8.02573 4.37878 7.61314 4.52644L7.00086 3.078C6.92379 2.89603 6.68023 2.84034 6.53595 2.99362C6.45495 3.07997 6.43948 3.20428 6.48673 3.30581L7.09592 4.74694C6.71651 4.93678 6.3672 5.17556 6.05417 5.45597C5.39801 4.79981 4.10173 3.50381 3.44558 2.84766C4.88726 1.49203 6.80511 0.639281 8.9187 0.569531C8.9187 0.981 8.91842 -0.71775 8.91954 4.26066ZM4.93479 13.6626C4.93508 13.6623 4.93508 13.662 4.93536 13.6617L6.08342 12.5137C6.4122 12.8033 6.78064 13.0466 7.18058 13.237L6.56914 14.7437C6.51036 14.8874 6.57898 15.0519 6.7227 15.1107C6.86192 15.1689 7.02954 15.1042 7.08973 14.9574L7.70173 13.4491C8.08817 13.5787 8.49655 13.6575 8.91983 13.6828C8.91983 13.7309 8.91898 17.3256 8.91898 17.3739C6.81945 17.3045 4.91314 16.463 3.47454 15.1234L4.93479 13.6626ZM9.48204 13.6825C9.93008 13.6558 10.361 13.5675 10.7671 13.4243L11.4016 14.9245C11.4635 15.0688 11.6308 15.1327 11.7709 15.0719C11.9137 15.0106 11.9798 14.8452 11.9185 14.7026L11.2854 13.2055C11.66 13.0202 12.0063 12.7879 12.317 12.5142C15.3675 15.5649 14.8193 15.0165 14.9256 15.1231C13.487 16.4627 11.5807 17.3042 9.4812 17.3737C9.48261 12.3154 9.48204 14.06 9.48204 13.6825ZM12.7159 12.1179C13.0084 11.7914 13.2553 11.4249 13.4491 11.0264L14.9141 11.6213C14.9422 11.6213 15.21 11.7453 15.3138 11.4725C15.3689 11.3273 15.296 11.1648 15.1509 11.1097L13.6648 10.5067C13.7987 10.1185 13.8822 9.70819 13.91 9.28209C14.2875 9.28209 12.5429 9.28238 17.6015 9.28125C17.525 11.3839 16.6733 13.2908 15.3239 14.7262C15.2927 14.695 15.3841 14.7864 12.7159 12.1179Z" fill="white"/>
</svg>
