<svg width="36" height="38" viewBox="0 0 36 38" fill="none" xmlns="http://www.w3.org/2000/svg">
<g clip-path="url(#clip0_1_1618)">
<path d="M6 28.2046H30C30.825 28.2046 31.5 27.5142 31.5 26.6705C31.5 25.8267 30.825 25.1364 30 25.1364H6C5.175 25.1364 4.5 25.8267 4.5 26.6705C4.5 27.5142 5.175 28.2046 6 28.2046ZM6 20.5341H30C30.825 20.5341 31.5 19.8438 31.5 19C31.5 18.1563 30.825 17.4659 30 17.4659H6C5.175 17.4659 4.5 18.1563 4.5 19C4.5 19.8438 5.175 20.5341 6 20.5341ZM4.5 11.3296C4.5 12.1733 5.175 12.8637 6 12.8637H30C30.825 12.8637 31.5 12.1733 31.5 11.3296C31.5 10.4858 30.825 9.79547 30 9.79547H6C5.175 9.79547 4.5 10.4858 4.5 11.3296Z" fill="white"/>
</g>
<defs>
<clipPath id="clip0_1_1618">
<rect width="36" height="36.8182" fill="white" transform="translate(0 0.590912)"/>
</clipPath>
</defs>
</svg>
