<svg width="20" height="20" viewBox="0 0 20 20" fill="none" xmlns="http://www.w3.org/2000/svg">
<path d="M19.45 0.564987C18.865 -0.0200131 17.92 -0.0200131 17.335 0.564987L9.99996 7.88499L2.66496 0.549987C2.07996 -0.0350134 1.13496 -0.0350134 0.549956 0.549987C-0.0350439 1.13499 -0.0350439 2.07999 0.549956 2.66499L7.88496 9.99999L0.549956 17.335C-0.0350439 17.92 -0.0350439 18.865 0.549956 19.45C1.13496 20.035 2.07996 20.035 2.66496 19.45L9.99996 12.115L17.335 19.45C17.92 20.035 18.865 20.035 19.45 19.45C20.035 18.865 20.035 17.92 19.45 17.335L12.115 9.99999L19.45 2.66499C20.02 2.09499 20.02 1.13499 19.45 0.564987Z" fill="white"/>
</svg>
